<?xml version="1.0" encoding="UTF-8"?>
<svg id="Layer_1" xmlns="http://www.w3.org/2000/svg" viewBox="0 0 38.1823 41.7546">
  <defs>
    <style>
      .cls-1 {
        fill: #231f20;
      }

      .cls-2 {
        fill: none;
        stroke: #231f20;
        stroke-linecap: round;
        stroke-miterlimit: 10;
        stroke-width: 2px;
      }
    </style>
  </defs>
  <path class="cls-2" d="M36.2803,17.0153c2.3675,7.1972.0192,15.4012-6.3922,20.1678-8.0162,5.9598-19.3486,4.2892-25.3116-3.7313C-1.3865,25.4313.278,14.098,8.2942,8.1382c7.4278-5.5223,17.7028-4.4933,23.9151,2.0683"/>
  <path class="cls-1" d="M21.5754,11.1198h0c-.0119-.553.427-1.0107.98-1.0221l8.8575-.1813-.828-8.8221c-.0517-.5506.3531-1.0388.9038-1.0899h.0001c.55-.0511,1.0374.3531,1.0889.9031l.9344,9.9772c.0499.5327-.3631.9957-.8981,1.0068l-10.0175.2072c-.5522.0114-1.0093-.4267-1.0212-.979Z"/>
</svg>