<?xml version="1.0" encoding="UTF-8"?>
<svg id="Layer_1" xmlns="http://www.w3.org/2000/svg" viewBox="0 0 50 50">
  <defs>
    <style>
      .cls-1 {
        fill: none;
        stroke: #231f20;
        stroke-linecap: round;
        stroke-miterlimit: 10;
        stroke-width: 1.25px;
      }
    </style>
  </defs>
  <path class="cls-1" d="M27,1.5c0,3.9018-4,3.9018-4,7.8036s4,3.9028,4,7.8056-4,3.9041-4,7.8083,4,3.9029,4,7.8058c0,3.9056-4,3.9056-4,7.8112s4,3.9056,4,7.8112"/>
  <path class="cls-1" d="M34.8487,1.5c0,3.9018-4,3.9018-4,7.8036s4,3.9028,4,7.8056-4,3.9041-4,7.8083,4,3.9029,4,7.8058c0,3.9056-4,3.9056-4,7.8112s4,3.9056,4,7.8112"/>
  <path class="cls-1" d="M19.1513,1.5c0,3.9018-4,3.9018-4,7.8036s4,3.9028,4,7.8056-4,3.9041-4,7.8083,4,3.9029,4,7.8058c0,3.9056-4,3.9056-4,7.8112s4,3.9056,4,7.8112"/>
</svg>