<svg width="90" height="90" viewBox="0 0 90 90" fill="none" xmlns="http://www.w3.org/2000/svg">
<g clip-path="url(#clip0_24_17876)">
<path fill-rule="evenodd" clip-rule="evenodd" d="M51.3472 42.4062L53.8994 44.9585L51.3472 47.5107V51.122H47.7359L45.187 53.6709L42.6381 51.122H39.026V47.5099L36.4746 44.9585L39.026 42.4071V38.8008H42.6323L45.187 36.2461L47.7417 38.8008H51.3472V42.4062Z" fill="#00B086"/>
<path fill-rule="evenodd" clip-rule="evenodd" d="M48.7734 57.6304L54.875 63.732H63.4683V54.9014L57.3677 48.8008V57.6304H48.7734Z" fill="#00B086"/>
<path d="M26.6699 63.733V55.1397L32.7705 49.0391V57.6314H41.6021L35.5005 63.733H26.6699Z" fill="#00B086"/>
<path d="M35.4995 26.9336H26.6699V35.5279L32.7705 41.6285V33.0333H41.5991L35.4995 26.9336Z" fill="#00B086"/>
<path d="M48.7773 33.0333H57.3686V41.8658L63.4692 35.7652V26.9336H54.8769L48.7773 33.0333Z" fill="#00B086"/>
<path fill-rule="evenodd" clip-rule="evenodd" d="M9.07031 39.6399V50.2784L15.1633 56.3714L21.0674 50.4674V39.4509L15.1633 33.5469L9.07031 39.6399Z" fill="#00B086"/>
<path fill-rule="evenodd" clip-rule="evenodd" d="M50.5069 8.96094H39.8684L33.7754 15.0539L39.6794 20.958H50.6959L56.5999 15.0539L50.5069 8.96094Z" fill="#00B086"/>
<path fill-rule="evenodd" clip-rule="evenodd" d="M50.5069 68.9609H39.8684L33.7754 75.054L39.6794 80.958H50.6959L56.5999 75.054L50.5069 68.9609Z" fill="#00B086"/>
<path fill-rule="evenodd" clip-rule="evenodd" d="M69.0713 39.6399V50.2784L75.1643 56.3714L81.0684 50.4674V39.4509L75.1643 33.5469L69.0713 39.6399Z" fill="#00B086"/>
<path fill-rule="evenodd" clip-rule="evenodd" d="M21.1152 0.36865V8.96094H29.876L28.8262 10.0107L23.8765 14.9604L28.8262 19.9102L29.873 20.957H21.0918V29.5522L20.1377 28.5982L15.188 23.6484L10.2378 28.5982L9.09473 29.7412V20.957H0.502929L1.54976 19.9102L6.49951 14.9604L1.54976 10.0107L0.5 8.96094H9.09473V0.179688L10.2378 1.32271L15.1875 6.27246L15.1995 6.2605L15.2114 6.27246L20.1612 1.32271L21.1152 0.36865Z" fill="#00B086"/>
<path fill-rule="evenodd" clip-rule="evenodd" d="M81.1152 0.36865V8.96094H89.876L88.8262 10.0107L83.8765 14.9604L88.8262 19.9102L89.873 20.957H81.0918V29.5522L80.1377 28.5982L75.188 23.6484L70.2378 28.5982L69.0947 29.7412V20.957H60.5029L61.5498 19.9102L66.4995 14.9604L61.5498 10.0107L60.5 8.96094H69.0947V0.179688L70.2378 1.32271L75.1875 6.27246L75.1995 6.2605L75.2114 6.27246L80.1612 1.32271L81.1152 0.36865Z" fill="#00B086"/>
<path fill-rule="evenodd" clip-rule="evenodd" d="M81.1152 60.3687V68.9609H89.876L88.8262 70.0107L83.8765 74.9604L88.8262 79.9102L89.873 80.957H81.0918V89.5522L80.1377 88.5982L75.188 83.6484L70.2378 88.5982L69.0947 89.7412V80.957H60.5029L61.5498 79.9102L66.4995 74.9604L61.5498 70.0107L60.5 68.9609H69.0947V60.1797L70.2378 61.3227L75.1875 66.2725L75.1995 66.2605L75.2114 66.2725L80.1612 61.3227L81.1152 60.3687Z" fill="#00B086"/>
<path fill-rule="evenodd" clip-rule="evenodd" d="M21.1152 60.3687V68.9609H29.876L28.8262 70.0107L23.8765 74.9604L28.8262 79.9102L29.873 80.957H21.0918V89.5522L20.1377 88.5982L15.188 83.6484L10.2378 88.5982L9.09473 89.7412V80.957H0.502929L1.54976 79.9102L6.49951 74.9604L1.54976 70.0107L0.5 68.9609H9.09473V60.1797L10.2378 61.3227L15.1875 66.2725L15.1995 66.2605L15.2114 66.2725L20.1612 61.3227L21.1152 60.3687Z" fill="#00B086"/>
</g>
<defs>
<clipPath id="clip0_24_17876">
<rect width="90" height="90" fill="white"/>
</clipPath>
</defs>
</svg>
